<svg width="32" height="32" xmlns="http://www.w3.org/2000/svg">

 <g>
  <title>background</title>
  <rect fill="none" id="canvas_background" height="402" width="582" y="-1" x="-1"/>
 </g>
 <g>
  <title>Layer 1</title>
  <rect id="svg_1" width="32" height="32" fill="none"/>
  <path fill="#ffffff" id="svg_2" d="m22.38,7.519c0.065,0.035 0.134,0.068 0.194,0.105c0.426,0.232 0.906,0.376 1.426,0.376c1.657,0 3,-1.343 3,-3s-1.343,-3 -3,-3s-3,1.343 -3,3c0,1.059 0.552,1.985 1.38,2.519zm-14.38,12.481c0,-2 0,-10 0,-10s0.005,-0.45 0.239,-1c-2.079,0 -4.239,0 -4.239,0s-2,0 -2,2l0,7c0,2 2,2 2,2l0,10l6,0l0,-8c0,0 -2,0 -2,-2zm8,-12c1.657,0 3,-1.343 3,-3s-1.343,-3 -3,-3s-3,1.343 -3,3s1.343,3 3,3zm-8,0c0.52,0 1.001,-0.144 1.427,-0.376c0.059,-0.036 0.125,-0.068 0.188,-0.103c0.831,-0.533 1.385,-1.46 1.385,-2.521c0,-1.657 -1.343,-3 -3,-3s-3,1.343 -3,3s1.343,3 3,3zm22,9.35c0,-2.261 0,-6.35 0,-6.35s0,-2 -2,-2l-4.238,0c0.233,0.55 0.238,1 0.238,1s0,1.888 0,4.059c-0.329,-0.037 -0.662,-0.059 -1,-0.059s-0.671,0.022 -1,0.059c0,-1.632 0,-3.059 0,-3.059s0,-2 -2,-2c-0.5,0 -8,0 -8,0s-2,0 -2,2l0,7c0,2 2,2 2,2l0,10l5.35,0c1.545,1.248 3.509,1.999 5.65,1.999c4.971,0 8.999,-4.028 8.999,-8.999c0,-2.142 -0.751,-4.105 -1.999,-5.65zm-7,12.649c-3.865,-0.008 -6.994,-3.135 -7,-6.999c0.006,-3.865 3.135,-6.994 7,-7c3.864,0.006 6.991,3.135 6.999,7c-0.008,3.864 -3.135,6.991 -6.999,6.999z"/>
  <path fill="#ffffff" id="svg_3" d="m26.144,22c0.008,-0.131 0.014,-0.267 0.014,-0.409c-0.006,-0.678 -0.088,-1.492 -0.556,-2.259c-0.457,-0.779 -1.438,-1.36 -2.602,-1.333c-1.165,-0.027 -2.148,0.554 -2.605,1.333c-0.47,0.767 -0.552,1.581 -0.556,2.259c0,0.143 0.006,0.278 0.014,0.409l-0.853,0l0,5l8,0l0,-5l-0.856,0zm-4.307,-0.409c-0.004,-0.478 0.093,-0.958 0.254,-1.198c0.173,-0.227 0.27,-0.366 0.909,-0.394c0.637,0.027 0.73,0.165 0.904,0.394c0.162,0.24 0.259,0.723 0.253,1.198c0,0.145 -0.008,0.28 -0.019,0.409l-2.282,0c-0.01,-0.131 -0.019,-0.268 -0.019,-0.409z"/>
 </g>
</svg>