<?xml version="1.0"?>
<svg xmlns="http://www.w3.org/2000/svg" id="outline" height="512px" viewBox="0 0 512 512" width="512px" class=""><g><path d="m56 232h48v16h-48z" data-original="#000000" class="active-path" data-old_color="#000000" fill="#FFFFFF"/><path d="m192 232h16v16h-16z" data-original="#000000" class="active-path" data-old_color="#000000" fill="#FFFFFF"/><path d="m120 232h56v16h-56z" data-original="#000000" class="active-path" data-old_color="#000000" fill="#FFFFFF"/><path d="m56 456h16v16h-16z" data-original="#000000" class="active-path" data-old_color="#000000" fill="#FFFFFF"/><path d="m192 456h16v16h-16z" data-original="#000000" class="active-path" data-old_color="#000000" fill="#FFFFFF"/><path d="m88 456h88v16h-88z" data-original="#000000" class="active-path" data-old_color="#000000" fill="#FFFFFF"/><path d="m304 232h24v16h-24z" data-original="#000000" class="active-path" data-old_color="#000000" fill="#FFFFFF"/><path d="m416 232h40v16h-40z" data-original="#000000" class="active-path" data-old_color="#000000" fill="#FFFFFF"/><path d="m344 232h56v16h-56z" data-original="#000000" class="active-path" data-old_color="#000000" fill="#FFFFFF"/><path d="m240 40h-216a8.00039 8.00039 0 0 0 -8 8v160a8.00039 8.00039 0 0 0 8 8h216a8.00039 8.00039 0 0 0 8-8v-160a8.00039 8.00039 0 0 0 -8-8zm-8 32h-100l-12-16h112zm0 128h-200v-144h68l21.59961 28.7998a8.0009 8.0009 0 0 0 6.40039 3.2002h104z" data-original="#000000" class="active-path" data-old_color="#000000" fill="#FFFFFF"/><path d="m488 40h-216a8.00039 8.00039 0 0 0 -8 8v160a8.00039 8.00039 0 0 0 8 8h216a8.00039 8.00039 0 0 0 8-8v-160a8.00039 8.00039 0 0 0 -8-8zm-8 32h-100l-12-16h112zm0 128h-200v-144h68l21.59961 28.7998a8.0009 8.0009 0 0 0 6.40039 3.2002h104z" data-original="#000000" class="active-path" data-old_color="#000000" fill="#FFFFFF"/><path d="m240 264h-216a8.00039 8.00039 0 0 0 -8 8v160a8.00039 8.00039 0 0 0 8 8h216a8.00039 8.00039 0 0 0 8-8v-160a8.00039 8.00039 0 0 0 -8-8zm-8 32h-100l-12-16h112zm0 128h-200v-144h68l21.59961 28.7998a8.0009 8.0009 0 0 0 6.40039 3.2002h104z" data-original="#000000" class="active-path" data-old_color="#000000" fill="#FFFFFF"/><path d="m488 264h-216a8.00039 8.00039 0 0 0 -8 8v160a8.00039 8.00039 0 0 0 8 8h40v-16h-32v-144h68l21.59961 28.7998a8.0009 8.0009 0 0 0 6.40039 3.2002h104v112h-80v16h88a8.00039 8.00039 0 0 0 8-8v-160a8.00039 8.00039 0 0 0 -8-8zm-108 32-12-16h112v16z" data-original="#000000" class="active-path" data-old_color="#000000" fill="#FFFFFF"/><path d="m381.65723 413.65723a8.00125 8.00125 0 0 0 -2.50586-13.01075l-56-24a8.00022 8.00022 0 0 0 -10.50489 10.50489l24 56a8.001 8.001 0 0 0 13.01075 2.50586l10.34277-10.34278 26.34277 26.34278 11.31446-11.31446-26.34278-26.34277zm-34.959 12.331-11.46679-26.75683 26.75683 11.46679z" data-original="#000000" class="active-path" data-old_color="#000000" fill="#FFFFFF"/><script xmlns="" class="active-path" style=""/></g> </svg>
