<?xml version="1.0"?>
<svg xmlns="http://www.w3.org/2000/svg" height="512px" viewBox="0 0 512 512" width="512px" class=""><g><circle cx="256" cy="268" r="12" data-original="#000000" class="active-path" data-old_color="#000000" fill="#FFFFFF"/><path d="m356.852 444c.33 0 .635-.088.963-.1a99.8 99.8 0 0 0 6.393-27.9h-14.708a99.711 99.711 0 0 0 6.393 27.9c.325.012.63.1.959.1z" data-original="#000000" class="active-path" data-old_color="#000000" fill="#FFFFFF"/><path d="m337.214 438.1a115.218 115.218 0 0 1 -3.723-22.1h-11.673a36.028 36.028 0 0 0 15.396 22.1z" data-original="#000000" class="active-path" data-old_color="#000000" fill="#FFFFFF"/><path d="m337.214 377.9a36.028 36.028 0 0 0 -15.4 22.1h11.673a115.231 115.231 0 0 1 3.727-22.1z" data-original="#000000" class="active-path" data-old_color="#000000" fill="#FFFFFF"/><path d="m256 32a167.469 167.469 0 0 0 -167.033 152h31.033c.368 0 .71.092 1.073.108a135.823 135.823 0 0 1 270.54 7.943c.132 0 .256-.051.387-.051h31.6c-4.223-88.911-77.663-160-167.6-160z" data-original="#000000" class="active-path" data-old_color="#000000" fill="#FFFFFF"/><path d="m80 208v128a8.011 8.011 0 0 0 8 8h8v72a8 8 0 0 0 4.75 7.309l42.889 19.061-3.343 7.91 44.213 18.686a16 16 0 1 0 12.457-29.475l-44.213-18.686-2.885 6.827-37.868-16.832v-66.8h8a8.011 8.011 0 0 0 8-8v-128a8.011 8.011 0 0 0 -8-8h-32a8.011 8.011 0 0 0 -8 8z" data-original="#000000" class="active-path" data-old_color="#000000" fill="#FFFFFF"/><path d="m64 320v-96.695h-16a16.015 16.015 0 0 0 -16 16v64.695a16.016 16.016 0 0 0 16 16z" data-original="#000000" class="active-path" data-old_color="#000000" fill="#FFFFFF"/><path d="m357.815 372.1c-.328-.009-.633-.1-.963-.1s-.634.088-.96.1a99.711 99.711 0 0 0 -6.392 27.9h14.709a99.8 99.8 0 0 0 -6.394-27.9z" data-original="#000000" class="active-path" data-old_color="#000000" fill="#FFFFFF"/><path d="m480 312v-64.695a16.015 16.015 0 0 0 -16-16h-16v96.695h16a16.016 16.016 0 0 0 16-16z" data-original="#000000" class="active-path" data-old_color="#000000" fill="#FFFFFF"/><path d="m284.852 408a72.049 72.049 0 1 0 44.609-66.57 7.989 7.989 0 0 1 -4.617.445l-42.644-8.527 8.528 42.644a7.981 7.981 0 0 1 -.446 4.617 71.574 71.574 0 0 0 -5.43 27.391zm72-52a52 52 0 1 1 -52 52 52.061 52.061 0 0 1 52-52z" data-original="#000000" class="active-path" data-old_color="#000000" fill="#FFFFFF"/><path d="m432 344v-128a8.038 8.038 0 0 0 -8-8h-32a8.036 8.036 0 0 0 -8 8v108.333a88.267 88.267 0 0 1 40.575 27.551 7.951 7.951 0 0 0 7.425-7.884z" data-original="#000000" class="active-path" data-old_color="#000000" fill="#FFFFFF"/><path d="m391.885 400a36.028 36.028 0 0 0 -15.4-22.1 115.1 115.1 0 0 1 3.725 22.1z" data-original="#000000" class="active-path" data-old_color="#000000" fill="#FFFFFF"/><path d="m391.885 416h-11.672a115.167 115.167 0 0 1 -3.725 22.1 36.032 36.032 0 0 0 15.397-22.1z" data-original="#000000" class="active-path" data-old_color="#000000" fill="#FFFFFF"/><circle cx="300" cy="268" r="12" data-original="#000000" class="active-path" data-old_color="#000000" fill="#FFFFFF"/><circle cx="212" cy="268" r="12" data-original="#000000" class="active-path" data-old_color="#000000" fill="#FFFFFF"/></g> </svg>
