<svg id="Layer_1" data-name="Layer 1" xmlns="http://www.w3.org/2000/svg" viewBox="0 0 370.84 453.06"><defs><style>.cls-1{fill:#bebebe;}.cls-2{fill:#62bc97;}</style></defs><title>file</title><path class="cls-1" d="M404.86,80.22H391.61V405.69a39.27,39.27,0,0,1-39.22,39.22h-241V457a25,25,0,0,0,25,25H404.81a25,25,0,0,0,25-25V105.25a25,25,0,0,0-25-25Zm0,0" transform="translate(-59 -28.94)"/><path class="cls-2" d="M218.16,430.71H352.34a25,25,0,0,0,25-25V54a25,25,0,0,0-25-25H173.54v8.28a24.21,24.21,0,0,1,.14,2.65v68.55a35.28,35.28,0,0,1-35.25,35.25H69.88c-.71,0-1.46,0-2.18-.09H59V405.69a25,25,0,0,0,25,25Zm5.06-85.07H135.74a11.83,11.83,0,0,1,0-23.66h87.53a11.83,11.83,0,1,1,0,23.66Zm87.53-60.37h-175a11.83,11.83,0,0,1,0-23.66h175a11.83,11.83,0,0,1,0,23.66Zm-175-87.77h175a11.83,11.83,0,0,1,0,23.66h-175a11.83,11.83,0,0,1,0-23.66Zm0,0" transform="translate(-59 -28.94)"/><path class="cls-2" d="M69.88,129.47h68.75a21,21,0,0,0,20.82-20.82V39.86a10.53,10.53,0,0,0-10.6-10.55,10.25,10.25,0,0,0-7.38,3.12L62.41,111.5a10.53,10.53,0,0,0,7.47,18Zm0,0" transform="translate(-59 -28.94)"/></svg>